<?xml version="1.0" encoding="UTF-8" standalone="no"?>
<!DOCTYPE svg PUBLIC "-//W3C//DTD SVG 1.1//EN" "http://www.w3.org/Graphics/SVG/1.1/DTD/svg11.dtd">
<svg width="100%" height="100%" viewBox="0 0 16 16" version="1.1" xmlns="http://www.w3.org/2000/svg" xmlns:xlink="http://www.w3.org/1999/xlink" xml:space="preserve" xmlns:serif="http://www.serif.com/" style="fill-rule:evenodd;clip-rule:evenodd;stroke-linejoin:round;stroke-miterlimit:2;">
    <g transform="matrix(0.126984,0,0,0.126984,-0.126984,-0.126984)">
        <path d="M64,127C65.07,127 66.05,126.43 66.59,125.51L83.36,96.77C84.19,95.34 83.71,93.5 82.28,92.67C80.85,91.84 79.01,92.32 78.18,93.75L64,118.05L49.83,93.75C48.99,92.32 47.16,91.84 45.73,92.67C44.3,93.5 43.82,95.34 44.65,96.77L61.42,125.51C61.95,126.43 62.93,127 64,127Z" style="fill:rgb(127,54,219);fill-rule:nonzero;"/>
        <path d="M85.22,71.7C85.77,72.68 86.79,73.24 87.84,73.24C88.34,73.24 88.84,73.12 89.3,72.86L100.47,66.62C101.17,66.23 101.69,65.57 101.9,64.79C102.11,64.01 102,63.18 101.6,62.49L66.6,2.49C66.05,1.57 65.07,1 64,1C62.93,1 61.95,1.57 61.41,2.49L26.41,62.49C26,63.19 25.9,64.02 26.11,64.79C26.32,65.57 26.84,66.23 27.54,66.62L38.7,72.86C40.15,73.67 41.97,73.15 42.78,71.7C43.59,70.25 43.07,68.43 41.62,67.62L33.13,62.87L61,15.1L61,71.56C61,73.22 62.34,74.56 64,74.56C65.66,74.56 67,73.22 67,71.56L67,15.1L94.87,62.88L86.37,67.63C84.92,68.43 84.41,70.26 85.22,71.7Z" style="fill:rgb(127,54,219);fill-rule:nonzero;"/>
        <path d="M26.63,48.3C26.15,46.71 24.48,45.81 22.89,46.29C19.47,47.32 16.38,48.48 13.69,49.75C12.19,50.46 11.55,52.24 12.26,53.74C12.77,54.83 13.85,55.46 14.98,55.46C15.41,55.46 15.84,55.37 16.26,55.17C18.68,54.03 21.49,52.97 24.63,52.03C26.21,51.56 27.11,49.89 26.63,48.3Z" style="fill:rgb(127,54,219);fill-rule:nonzero;"/>
        <path d="M105.1,46.29C103.52,45.81 101.84,46.71 101.36,48.3C100.88,49.89 101.78,51.56 103.37,52.04C114.25,55.31 121,59.9 121,64C121,67.78 115.05,72.1 105.48,75.3C94.44,78.97 79.71,81 64,81C48.29,81 33.56,78.97 22.52,75.3C12.95,72.1 7,67.78 7,64C7,62.34 5.66,61 4,61C2.34,61 1,62.34 1,64C1,78.94 33.46,87 64,87C94.54,87 127,78.94 127,64C127,56.84 119.22,50.55 105.1,46.29Z" style="fill:rgb(127,54,219);fill-rule:nonzero;"/>
    </g>
</svg>
